<svg width="1728" height="1117" viewBox="0 0 1728 1117" fill="none" xmlns="http://www.w3.org/2000/svg">
<g clip-path="url(#clip0_142_54)">
<rect width="1728" height="1117" fill="#B4CBCB"/>
<path d="M410.265 383.467L698.661 550.151L661.853 613.973L373.456 447.289C362.808 441.135 350.716 436.116 337.18 432.232C323.985 427.757 309.848 426.284 294.769 427.812C279.098 428.998 263.408 435.688 247.699 447.883C231.398 459.735 215.579 478.958 200.242 505.551C189.676 523.87 180.249 543.635 171.96 564.846C163.671 586.057 156.69 608.418 151.018 631.93L526.378 848.875L489.569 912.698L82.2646 677.288C83.3453 659.003 85.4837 640.934 88.6799 623.083C91.6254 604.3 95.754 586.2 101.066 568.783C106.718 550.776 113.258 533.282 120.686 516.301C128.454 498.728 137.109 481.669 146.652 465.122C171.532 421.983 197.807 391.469 225.477 373.581C252.555 355.35 281.46 347.63 312.19 350.421C343.262 352.62 375.953 363.635 410.265 383.467ZM260.538 409.209C256.995 381.16 256.581 354.525 259.295 329.304C262.009 304.083 267.43 279.639 275.559 255.971C284.028 231.712 294.568 208.651 307.178 186.786C332.058 143.646 358.332 113.132 386.002 95.2437C413.081 77.0131 441.985 69.2931 472.716 72.0837C503.787 74.2833 536.479 85.2987 570.79 105.13L859.187 271.814L822.378 335.636L533.982 168.952C523.333 162.798 511.241 157.779 497.706 153.895C484.511 149.421 470.374 147.947 455.295 149.475C439.624 150.661 423.934 157.351 408.224 169.546C391.923 181.398 376.104 200.621 360.767 227.214C350.202 245.533 341.958 265.982 336.035 288.561C330.112 311.139 327.864 336.236 329.291 363.85L260.538 409.209Z" fill="#3D322A" fill-opacity="0.2"/>
<path d="M533.735 733.533L245.339 566.849L282.147 503.027L570.543 669.711C581.192 675.865 593.284 680.884 606.82 684.768C620.015 689.242 634.152 690.716 649.231 689.188C664.902 688.002 680.592 681.312 696.301 669.117C712.602 657.265 728.421 638.042 743.758 611.449C754.323 593.13 763.751 573.365 772.04 552.154C780.329 530.943 787.309 508.582 792.981 485.07L417.622 268.124L454.431 204.302L861.735 439.711C860.655 457.997 858.516 476.065 855.32 493.916C852.374 512.7 848.246 530.8 842.934 548.216C837.282 566.224 830.742 583.718 823.314 600.699C815.546 618.271 806.89 635.331 797.348 651.877C772.468 695.017 746.193 725.531 718.523 743.419C691.444 761.65 662.54 769.37 631.81 766.579C600.738 764.38 568.047 753.364 533.735 733.533ZM683.462 707.791C687.005 735.84 687.419 762.475 684.705 787.696C681.991 812.917 676.57 837.361 668.441 861.029C659.972 885.287 649.432 908.349 636.822 930.214C611.942 973.354 585.667 1003.87 557.997 1021.76C530.919 1039.99 502.015 1047.71 471.284 1044.92C440.213 1042.72 407.521 1031.7 373.21 1011.87L84.8131 845.186L121.621 781.363L410.018 948.048C420.666 954.202 432.759 959.221 446.294 963.105C459.489 967.579 473.626 969.053 488.705 967.525C504.376 966.339 520.066 959.649 535.776 947.454C552.077 935.601 567.896 916.379 583.233 889.786C593.798 871.467 602.042 851.018 607.965 828.439C613.888 805.861 616.135 780.764 614.708 753.15L683.462 707.791Z" fill="#3D322A" fill-opacity="0.2"/>
</g>
<defs>
<clipPath id="clip0_142_54">
<rect width="1728" height="1117" fill="white"/>
</clipPath>
</defs>
</svg>
