<svg width="100" height="121" viewBox="0 0 100 121" fill="none" xmlns="http://www.w3.org/2000/svg">
<path d="M28.6453 50.3281L69.6901 39.4009L72.1265 48.4355L31.0818 59.3627C29.5663 59.7662 28.023 60.4012 26.4519 61.2678C24.8583 62.0507 23.4503 63.1876 22.2281 64.6786C20.9217 66.192 20.11 68.2013 19.793 70.7065C19.3917 73.2341 19.6987 76.3802 20.7139 80.1446C21.4133 82.7378 22.3457 85.3587 23.5111 88.0072C24.6766 90.6557 26.0638 93.29 27.6728 95.9101L81.094 81.6878L83.5305 90.7224L25.5627 106.155C24.011 104.416 22.5742 102.602 21.2525 100.713C19.824 98.7617 18.5638 96.7661 17.4721 94.7256C16.3578 92.6014 15.3699 90.4436 14.5082 88.2522C13.6239 85.9772 12.8659 83.6685 12.2343 81.3262C10.5874 75.2195 10.2051 70.121 11.0873 66.0308C11.8853 61.9629 13.7959 58.6748 16.8193 56.1664C19.82 53.5743 23.7621 51.6282 28.6453 50.3281ZM17.4629 66.0817C14.6136 63.8815 12.1739 61.5274 10.144 59.0194C8.11402 56.5114 6.39828 53.8301 4.99677 50.9755C3.5727 48.0372 2.44331 45.0205 1.6086 41.9253C-0.0382694 35.8186 -0.420601 30.7201 0.461602 26.6299C1.25961 22.5621 3.17028 19.2739 6.19361 16.7655C9.19438 14.1734 13.1364 12.2273 18.0197 10.9273L59.0644 0L61.5009 9.0346L20.4561 19.9619C18.9406 20.3653 17.3973 21.0004 15.8263 21.8669C14.2326 22.6498 12.8247 23.7868 11.6025 25.2777C10.296 26.7911 9.48432 28.8004 9.1673 31.3056C8.76608 33.8333 9.07307 36.9793 10.0883 40.7437C10.7876 43.337 11.8884 45.913 13.3906 48.4718C14.8928 51.0307 16.9536 53.4856 19.5729 55.8367L17.4629 66.0817Z" fill="#FF9B3E"/>
<path d="M71.3547 70.6719L30.3099 81.5991L27.8735 72.5645L68.9182 61.6373C70.4337 61.2338 71.977 60.5988 73.5481 59.7322C75.1417 58.9493 76.5497 57.8124 77.7719 56.3214C79.0783 54.808 79.89 52.7987 80.207 50.2935C80.6082 47.7659 80.3013 44.6199 79.2861 40.8554C78.5867 38.2622 77.6543 35.6413 76.4889 32.9928C75.3234 30.3443 73.9362 27.71 72.3272 25.0899L18.906 39.3122L16.4695 30.2776L74.4373 14.8449C75.989 16.5837 77.4258 18.3978 78.7475 20.2874C80.176 22.2383 81.4361 24.2339 82.5279 26.2744C83.6422 28.3986 84.6301 30.5564 85.4918 32.7478C86.3761 35.0229 87.1341 37.3315 87.7657 39.6738C89.4126 45.7805 89.7949 50.879 88.9127 54.9693C88.1147 59.0371 86.204 62.3252 83.1807 64.8336C80.1799 67.4257 76.2379 69.3718 71.3547 70.6719ZM82.5371 54.9183C85.3864 57.1185 87.8261 59.4726 89.856 61.9806C91.886 64.4886 93.6017 67.1699 95.0032 70.0245C96.4273 72.9628 97.5567 75.9795 98.3914 79.0747C100.038 85.1814 100.421 90.2799 99.5384 94.3701C98.7404 98.4379 96.8297 101.726 93.8064 104.235C90.8056 106.827 86.8636 108.773 81.9803 110.073L40.9356 121L38.4991 111.965L79.5439 101.038C81.0594 100.635 82.6026 99.9996 84.1737 99.1331C85.7674 98.3502 87.1753 97.2132 88.3975 95.7223C89.704 94.2089 90.5157 92.1996 90.8327 89.6944C91.2339 87.1667 90.9269 84.0207 89.9117 80.2563C89.2124 77.663 88.1116 75.087 86.6094 72.5282C85.1072 69.9693 83.0464 67.5144 80.4271 65.1633L82.5371 54.9183Z" fill="#FF9B3E"/>
</svg>
